# xmcd
#
# Track frame offsets: 
#        150
#        17532
#        33124
#        44001
#        50732
#        66351
#        76615
#        101273
#        117200
#        127213
#        160263
#        178152
#        190321
#        202231
#        210889
#        254161
#        271695
#        296258
#        303433
#
# Disc length: 4364 seconds
#
# Revision: 2
# Processed by: cddbd v1.5.2PL0 Copyright (c) Steve Scherf et al.
# Submitted via: ExactAudioCopy v0.99pb4
#
DISCID=11110a13
DTITLE=Various Artist - Prison Worksongs
DYEAR=1997
DGENRE=Blues
TTITLE0=Big Louisiana, Rev. Rogers and Roosevelt Charles - Berta
TTITLE1=Guitar Welch, Hogman Maxey and Andy Mosely - Take This Hammer
TTITLE2=Rev. Rogers, Big Louisiana and Jose Smith - Stewball
TTITLE3=Odea Mathews - Five Long Years For One Man
TTITLE4=Guitar Welch, Hogman Maxey and Andy Mosely - Alberta Let Your Ba
TTITLE4=ngs Grow Long
TTITLE5=James Russell - I Had Five Long Years
TTITLE6=Johnny Butler - Early In The Mornin'
TTITLE7=Roosevelt Charles, Arthur Davis and Big Louisiana - All Teamed U
TTITLE7=p In Angola's Mule Lot
TTITLE8=Wily Rafus and Work Gang - I Got A Hurtin' In My Right Side
TTITLE9=Big Louisiana, Willy Rafus and Arthur Davis - Let Your Hammer Ri
TTITLE9=ng
TTITLE10=Willy Rafus, Andy Mosely and Johnny Butler - Cleaning This High
TTITLE10=way
TTITLE11=Guitar Welch, Hogman MAxey and Robert Pete Williams - John Henr
TTITLE11=y
TTITLE12=Odea Mathews - Something Within Me
TTITLE13=Murray Macon - Jesus Cares
TTITLE14=Emanuel Dunn - Working On The Levee Part 1 (Good Morning Capt
TTITLE14=ain)
TTITLE15=Emanuel Dunn - Working On The Levee Part 2
TTITLE16=Big Louisiana - Take This Hammer
TTITLE17=Creola and Ceola Scott - Pickin' Cotton All Day Long
TTITLE18=Emanuel Dunn - My Mule Grey (A Plowing Song)
EXTD=
EXTT0=
EXTT1=
EXTT2=
EXTT3=
EXTT4=
EXTT5=
EXTT6=
EXTT7=
EXTT8=
EXTT9=
EXTT10=
EXTT11=
EXTT12=
EXTT13=
EXTT14=
EXTT15=
EXTT16=
EXTT17=
EXTT18=
PLAYORDER=
